<mxfile host="app.diagrams.net" modified="2024-05-25T22:57:59.556Z" agent="Mozilla/5.0 (Windows NT 10.0; Win64; x64) AppleWebKit/537.36 (KHTML, like Gecko) Chrome/125.0.0.0 Safari/537.36" etag="z6q1q0wCweGu4cwgY6db" version="24.4.8" type="google">
  <diagram name="PÃ¡gina-1" id="Az3mk4kNPSwlYUb-JPNO">
    <mxGraphModel grid="1" page="1" gridSize="10" guides="1" tooltips="1" connect="1" arrows="1" fold="1" pageScale="1" pageWidth="827" pageHeight="1169" math="0" shadow="0">
      <root>
        <mxCell id="0" />
        <mxCell id="1" parent="0" />
        <mxCell id="mM6SD1p4QrVTkejBkxHW-1" value="ESP32" style="rounded=0;whiteSpace=wrap;html=1;" vertex="1" parent="1">
          <mxGeometry x="330" y="130" width="90" height="160" as="geometry" />
        </mxCell>
        <mxCell id="mM6SD1p4QrVTkejBkxHW-3" value="Microsd" style="rounded=0;whiteSpace=wrap;html=1;" vertex="1" parent="1">
          <mxGeometry x="520" y="160" width="60" height="80" as="geometry" />
        </mxCell>
        <mxCell id="mM6SD1p4QrVTkejBkxHW-4" value="DHT11" style="rounded=0;whiteSpace=wrap;html=1;" vertex="1" parent="1">
          <mxGeometry x="190" y="360" width="50" height="60" as="geometry" />
        </mxCell>
        <mxCell id="mM6SD1p4QrVTkejBkxHW-5" value="" style="endArrow=none;html=1;rounded=0;entryX=0;entryY=1;entryDx=0;entryDy=0;" edge="1" parent="1" target="mM6SD1p4QrVTkejBkxHW-1">
          <mxGeometry width="50" height="50" relative="1" as="geometry">
            <mxPoint x="310" y="310" as="sourcePoint" />
            <mxPoint x="420" y="230" as="targetPoint" />
            <Array as="points">
              <mxPoint x="310" y="290" />
            </Array>
          </mxGeometry>
        </mxCell>
        <mxCell id="mM6SD1p4QrVTkejBkxHW-6" value="GND" style="text;html=1;align=center;verticalAlign=middle;whiteSpace=wrap;rounded=0;" vertex="1" parent="1">
          <mxGeometry x="290" y="310" width="40" height="10" as="geometry" />
        </mxCell>
        <mxCell id="mM6SD1p4QrVTkejBkxHW-7" value="" style="endArrow=none;html=1;rounded=0;exitX=1;exitY=1;exitDx=0;exitDy=0;" edge="1" parent="1" source="mM6SD1p4QrVTkejBkxHW-1">
          <mxGeometry width="50" height="50" relative="1" as="geometry">
            <mxPoint x="370" y="280" as="sourcePoint" />
            <mxPoint x="440" y="310" as="targetPoint" />
            <Array as="points">
              <mxPoint x="440" y="290" />
            </Array>
          </mxGeometry>
        </mxCell>
        <mxCell id="mM6SD1p4QrVTkejBkxHW-8" value="3.3v" style="text;html=1;align=center;verticalAlign=middle;whiteSpace=wrap;rounded=0;" vertex="1" parent="1">
          <mxGeometry x="420" y="310" width="40" height="10" as="geometry" />
        </mxCell>
        <mxCell id="mM6SD1p4QrVTkejBkxHW-9" value="Oled" style="text;html=1;align=center;verticalAlign=middle;whiteSpace=wrap;rounded=0;" vertex="1" parent="1">
          <mxGeometry x="120" y="130" width="60" height="30" as="geometry" />
        </mxCell>
        <mxCell id="mM6SD1p4QrVTkejBkxHW-15" value="" style="rounded=0;whiteSpace=wrap;html=1;" vertex="1" parent="1">
          <mxGeometry x="80" y="160" width="130" height="100" as="geometry" />
        </mxCell>
        <mxCell id="mM6SD1p4QrVTkejBkxHW-16" value="&lt;font style=&quot;font-size: 15px;&quot;&gt;C&amp;nbsp; &amp;nbsp; 21.40&amp;nbsp; &amp;nbsp; &amp;nbsp; M&lt;/font&gt;" style="text;html=1;align=left;verticalAlign=middle;whiteSpace=wrap;rounded=0;" vertex="1" parent="1">
          <mxGeometry x="90" y="160" width="120" height="40" as="geometry" />
        </mxCell>
        <mxCell id="mM6SD1p4QrVTkejBkxHW-17" value="&lt;font style=&quot;font-size: 15px;&quot;&gt;%&amp;nbsp; &amp;nbsp;40.00&lt;/font&gt;" style="text;html=1;align=left;verticalAlign=middle;whiteSpace=wrap;rounded=0;" vertex="1" parent="1">
          <mxGeometry x="90" y="180" width="120" height="40" as="geometry" />
        </mxCell>
        <mxCell id="mM6SD1p4QrVTkejBkxHW-18" value="mc:&amp;nbsp; xx:xx:xx:xx:xx:xx" style="text;html=1;align=center;verticalAlign=middle;whiteSpace=wrap;rounded=0;" vertex="1" parent="1">
          <mxGeometry x="90" y="210" width="120" height="30" as="geometry" />
        </mxCell>
        <mxCell id="mM6SD1p4QrVTkejBkxHW-19" value="SD Ok" style="text;html=1;align=left;verticalAlign=middle;whiteSpace=wrap;rounded=0;" vertex="1" parent="1">
          <mxGeometry x="90" y="230" width="120" height="30" as="geometry" />
        </mxCell>
        <mxCell id="mM6SD1p4QrVTkejBkxHW-20" value="" style="endArrow=none;html=1;rounded=0;entryX=0.911;entryY=1.068;entryDx=0;entryDy=0;entryPerimeter=0;" edge="1" parent="1" target="mM6SD1p4QrVTkejBkxHW-19">
          <mxGeometry width="50" height="50" relative="1" as="geometry">
            <mxPoint x="199" y="280" as="sourcePoint" />
            <mxPoint x="450" y="260" as="targetPoint" />
          </mxGeometry>
        </mxCell>
        <mxCell id="mM6SD1p4QrVTkejBkxHW-21" value="" style="endArrow=none;html=1;rounded=0;entryX=0.911;entryY=1.068;entryDx=0;entryDy=0;entryPerimeter=0;" edge="1" parent="1">
          <mxGeometry width="50" height="50" relative="1" as="geometry">
            <mxPoint x="160" y="280" as="sourcePoint" />
            <mxPoint x="160" y="262" as="targetPoint" />
          </mxGeometry>
        </mxCell>
        <mxCell id="mM6SD1p4QrVTkejBkxHW-22" value="3.3v" style="text;html=1;align=center;verticalAlign=middle;whiteSpace=wrap;rounded=0;" vertex="1" parent="1">
          <mxGeometry x="170" y="280" width="60" height="30" as="geometry" />
        </mxCell>
        <mxCell id="mM6SD1p4QrVTkejBkxHW-23" value="GND" style="text;html=1;align=center;verticalAlign=middle;whiteSpace=wrap;rounded=0;" vertex="1" parent="1">
          <mxGeometry x="130" y="270" width="60" height="30" as="geometry" />
        </mxCell>
        <mxCell id="mM6SD1p4QrVTkejBkxHW-24" value="" style="endArrow=none;html=1;rounded=0;" edge="1" parent="1">
          <mxGeometry width="50" height="50" relative="1" as="geometry">
            <mxPoint x="90" y="320" as="sourcePoint" />
            <mxPoint x="90" y="260" as="targetPoint" />
          </mxGeometry>
        </mxCell>
        <mxCell id="mM6SD1p4QrVTkejBkxHW-25" value="&lt;font style=&quot;font-size: 10px;&quot;&gt;SDA - P21&lt;/font&gt;" style="text;html=1;align=center;verticalAlign=middle;whiteSpace=wrap;rounded=0;" vertex="1" parent="1">
          <mxGeometry x="40" y="320" width="60" height="30" as="geometry" />
        </mxCell>
        <mxCell id="mM6SD1p4QrVTkejBkxHW-26" value="" style="endArrow=none;html=1;rounded=0;" edge="1" parent="1">
          <mxGeometry width="50" height="50" relative="1" as="geometry">
            <mxPoint x="110" y="360" as="sourcePoint" />
            <mxPoint x="110" y="260" as="targetPoint" />
          </mxGeometry>
        </mxCell>
        <mxCell id="mM6SD1p4QrVTkejBkxHW-27" value="&lt;font style=&quot;font-size: 10px;&quot;&gt;SLC - P22&lt;/font&gt;" style="text;html=1;align=center;verticalAlign=middle;whiteSpace=wrap;rounded=0;" vertex="1" parent="1">
          <mxGeometry x="60" y="360" width="60" height="30" as="geometry" />
        </mxCell>
        <mxCell id="mM6SD1p4QrVTkejBkxHW-28" value="" style="endArrow=none;html=1;rounded=0;entryX=0.911;entryY=1.068;entryDx=0;entryDy=0;entryPerimeter=0;" edge="1" parent="1">
          <mxGeometry width="50" height="50" relative="1" as="geometry">
            <mxPoint x="239" y="438" as="sourcePoint" />
            <mxPoint x="239" y="420" as="targetPoint" />
          </mxGeometry>
        </mxCell>
        <mxCell id="mM6SD1p4QrVTkejBkxHW-29" value="3.3v" style="text;html=1;align=center;verticalAlign=middle;whiteSpace=wrap;rounded=0;" vertex="1" parent="1">
          <mxGeometry x="210" y="438" width="60" height="30" as="geometry" />
        </mxCell>
        <mxCell id="mM6SD1p4QrVTkejBkxHW-30" value="" style="endArrow=none;html=1;rounded=0;entryX=0.911;entryY=1.068;entryDx=0;entryDy=0;entryPerimeter=0;" edge="1" parent="1">
          <mxGeometry width="50" height="50" relative="1" as="geometry">
            <mxPoint x="210" y="438" as="sourcePoint" />
            <mxPoint x="210" y="420" as="targetPoint" />
          </mxGeometry>
        </mxCell>
        <mxCell id="mM6SD1p4QrVTkejBkxHW-31" value="GND" style="text;html=1;align=center;verticalAlign=middle;whiteSpace=wrap;rounded=0;" vertex="1" parent="1">
          <mxGeometry x="180" y="428" width="60" height="30" as="geometry" />
        </mxCell>
        <mxCell id="mM6SD1p4QrVTkejBkxHW-32" value="" style="endArrow=none;html=1;rounded=0;entryX=0.911;entryY=1.068;entryDx=0;entryDy=0;entryPerimeter=0;" edge="1" parent="1">
          <mxGeometry width="50" height="50" relative="1" as="geometry">
            <mxPoint x="190" y="470" as="sourcePoint" />
            <mxPoint x="190" y="420" as="targetPoint" />
          </mxGeometry>
        </mxCell>
        <mxCell id="mM6SD1p4QrVTkejBkxHW-33" value="Data - P4" style="text;html=1;align=center;verticalAlign=middle;whiteSpace=wrap;rounded=0;" vertex="1" parent="1">
          <mxGeometry x="160" y="468" width="60" height="30" as="geometry" />
        </mxCell>
        <mxCell id="mM6SD1p4QrVTkejBkxHW-34" value="" style="endArrow=none;html=1;rounded=0;" edge="1" parent="1">
          <mxGeometry width="50" height="50" relative="1" as="geometry">
            <mxPoint x="580" y="170" as="sourcePoint" />
            <mxPoint x="620" y="170" as="targetPoint" />
          </mxGeometry>
        </mxCell>
        <mxCell id="mM6SD1p4QrVTkejBkxHW-35" value="" style="endArrow=none;html=1;rounded=0;" edge="1" parent="1">
          <mxGeometry width="50" height="50" relative="1" as="geometry">
            <mxPoint x="580" y="190" as="sourcePoint" />
            <mxPoint x="620" y="190" as="targetPoint" />
          </mxGeometry>
        </mxCell>
        <mxCell id="mM6SD1p4QrVTkejBkxHW-36" value="3.3/5 v" style="text;html=1;align=center;verticalAlign=middle;whiteSpace=wrap;rounded=0;" vertex="1" parent="1">
          <mxGeometry x="610" y="150" width="60" height="30" as="geometry" />
        </mxCell>
        <mxCell id="mM6SD1p4QrVTkejBkxHW-37" value="GND" style="text;html=1;align=center;verticalAlign=middle;whiteSpace=wrap;rounded=0;" vertex="1" parent="1">
          <mxGeometry x="620" y="180" width="40" height="10" as="geometry" />
        </mxCell>
        <mxCell id="mM6SD1p4QrVTkejBkxHW-38" value="" style="endArrow=none;html=1;rounded=0;" edge="1" parent="1">
          <mxGeometry width="50" height="50" relative="1" as="geometry">
            <mxPoint x="520" y="330" as="sourcePoint" />
            <mxPoint x="520" y="240" as="targetPoint" />
          </mxGeometry>
        </mxCell>
        <mxCell id="mM6SD1p4QrVTkejBkxHW-39" value="" style="endArrow=none;html=1;rounded=0;" edge="1" parent="1">
          <mxGeometry width="50" height="50" relative="1" as="geometry">
            <mxPoint x="540" y="310" as="sourcePoint" />
            <mxPoint x="540" y="240" as="targetPoint" />
          </mxGeometry>
        </mxCell>
        <mxCell id="mM6SD1p4QrVTkejBkxHW-40" value="" style="endArrow=none;html=1;rounded=0;" edge="1" parent="1">
          <mxGeometry width="50" height="50" relative="1" as="geometry">
            <mxPoint x="560" y="290" as="sourcePoint" />
            <mxPoint x="560" y="240" as="targetPoint" />
          </mxGeometry>
        </mxCell>
        <mxCell id="mM6SD1p4QrVTkejBkxHW-41" value="" style="endArrow=none;html=1;rounded=0;" edge="1" parent="1">
          <mxGeometry width="50" height="50" relative="1" as="geometry">
            <mxPoint x="580" y="270" as="sourcePoint" />
            <mxPoint x="580" y="240" as="targetPoint" />
          </mxGeometry>
        </mxCell>
        <mxCell id="mM6SD1p4QrVTkejBkxHW-42" value="CS - P5" style="text;html=1;align=center;verticalAlign=middle;whiteSpace=wrap;rounded=0;" vertex="1" parent="1">
          <mxGeometry x="570" y="260" width="60" height="30" as="geometry" />
        </mxCell>
        <mxCell id="mM6SD1p4QrVTkejBkxHW-43" value="SCK - P18" style="text;html=1;align=center;verticalAlign=middle;whiteSpace=wrap;rounded=0;" vertex="1" parent="1">
          <mxGeometry x="560" y="280" width="60" height="30" as="geometry" />
        </mxCell>
        <mxCell id="mM6SD1p4QrVTkejBkxHW-44" value="MOSI - P23" style="text;html=1;align=center;verticalAlign=middle;whiteSpace=wrap;rounded=0;" vertex="1" parent="1">
          <mxGeometry x="530" y="300" width="80" height="30" as="geometry" />
        </mxCell>
        <mxCell id="mM6SD1p4QrVTkejBkxHW-45" value="MOSO - P21" style="text;html=1;align=center;verticalAlign=middle;whiteSpace=wrap;rounded=0;" vertex="1" parent="1">
          <mxGeometry x="510" y="320" width="80" height="30" as="geometry" />
        </mxCell>
      </root>
    </mxGraphModel>
  </diagram>
</mxfile>
